<svg width="20" height="18" viewBox="0 0 20 18" fill="none" xmlns="http://www.w3.org/2000/svg">
<path d="M18.8301 4.09297C18.5421 3.42617 18.1269 2.82193 17.6076 2.31406C17.088 1.80468 16.4753 1.39988 15.8029 1.12168C15.1057 0.832055 14.3579 0.683809 13.6029 0.685547C12.5438 0.685547 11.5104 0.975586 10.6123 1.52344C10.3975 1.65449 10.1934 1.79844 10 1.95527C9.80664 1.79844 9.60254 1.65449 9.3877 1.52344C8.48965 0.975586 7.45625 0.685547 6.39707 0.685547C5.63438 0.685547 4.89531 0.831641 4.19707 1.12168C3.52246 1.40098 2.91445 1.80273 2.39238 2.31406C1.87245 2.82136 1.45712 3.42574 1.16992 4.09297C0.871289 4.78691 0.71875 5.52383 0.71875 6.28223C0.71875 6.99766 0.864844 7.74316 1.15488 8.50156C1.39766 9.13535 1.7457 9.79277 2.19043 10.4566C2.89512 11.5072 3.86406 12.6029 5.06719 13.7137C7.06094 15.5549 9.03535 16.8268 9.11914 16.8783L9.62832 17.2049C9.85391 17.3488 10.1439 17.3488 10.3695 17.2049L10.8787 16.8783C10.9625 16.8246 12.9348 15.5549 14.9307 13.7137C16.1338 12.6029 17.1027 11.5072 17.8074 10.4566C18.2522 9.79277 18.6023 9.13535 18.843 8.50156C19.133 7.74316 19.2791 6.99766 19.2791 6.28223C19.2813 5.52383 19.1287 4.78691 18.8301 4.09297ZM10 15.5055C10 15.5055 2.35156 10.6049 2.35156 6.28223C2.35156 4.09297 4.1627 2.31836 6.39707 2.31836C7.96758 2.31836 9.32969 3.19492 10 4.47539C10.6703 3.19492 12.0324 2.31836 13.6029 2.31836C15.8373 2.31836 17.6484 4.09297 17.6484 6.28223C17.6484 10.6049 10 15.5055 10 15.5055Z" fill="#B7863B"/>
</svg>
