<svg width="30" height="42" viewBox="0 0 30 42" fill="none" xmlns="http://www.w3.org/2000/svg">
<path d="M15 41.8333C14.5138 41.8333 14.0972 41.6944 13.75 41.4166C13.4027 41.1389 13.1423 40.7743 12.9687 40.3229C12.309 38.3784 11.4757 36.5555 10.4687 34.8541C9.49649 33.1527 8.12496 31.1562 6.35413 28.8645C4.58329 26.5729 3.14232 24.3854 2.03121 22.302C0.95482 20.2187 0.416626 17.7013 0.416626 14.75C0.416626 10.6875 1.82288 7.24996 4.63538 4.43746C7.4826 1.59024 10.9375 0.166626 15 0.166626C19.0625 0.166626 22.5 1.59024 25.3125 4.43746C28.1597 7.24996 29.5833 10.6875 29.5833 14.75C29.5833 17.9097 28.9757 20.5486 27.7604 22.6666C26.5798 24.75 25.2083 26.8159 23.6458 28.8645C21.7708 31.3645 20.3472 33.4479 19.375 35.1145C18.4375 36.7465 17.6562 38.4826 17.0312 40.3229C16.8576 40.809 16.5798 41.1909 16.1979 41.4687C15.8507 41.7118 15.4513 41.8333 15 41.8333ZM15 19.9583C16.4583 19.9583 17.6909 19.4548 18.6979 18.4479C19.7048 17.4409 20.2083 16.2083 20.2083 14.75C20.2083 13.2916 19.7048 12.059 18.6979 11.052C17.6909 10.0451 16.4583 9.54163 15 9.54163C13.5416 9.54163 12.309 10.0451 11.302 11.052C10.2951 12.059 9.79163 13.2916 9.79163 14.75C9.79163 16.2083 10.2951 17.4409 11.302 18.4479C12.309 19.4548 13.5416 19.9583 15 19.9583Z" fill="white"/>
</svg>
