<svg width="16" height="18" viewBox="0 0 16 18" fill="none" xmlns="http://www.w3.org/2000/svg">
<path d="M11.75 5.25V7.125C11.75 7.29076 11.6842 7.44973 11.5669 7.56694C11.4497 7.68415 11.2908 7.75 11.125 7.75H10.5V5.25H5.5V7.75H4.875C4.70924 7.75 4.55027 7.68415 4.43306 7.56694C4.31585 7.44973 4.25 7.29076 4.25 7.125V5.25H1.75V16.5H14.25V5.25H11.75ZM4.25 4C4.25 3.00544 4.64509 2.05161 5.34835 1.34835C6.05161 0.645088 7.00544 0.25 8 0.25C8.99456 0.25 9.94839 0.645088 10.6517 1.34835C11.3549 2.05161 11.75 3.00544 11.75 4H14.875C15.0408 4 15.1997 4.06585 15.3169 4.18306C15.4342 4.30027 15.5 4.45924 15.5 4.625V17.125C15.5 17.2908 15.4342 17.4497 15.3169 17.5669C15.1997 17.6842 15.0408 17.75 14.875 17.75H1.125C0.95924 17.75 0.800269 17.6842 0.683058 17.5669C0.565848 17.4497 0.5 17.2908 0.5 17.125V4.625C0.5 4.45924 0.565848 4.30027 0.683058 4.18306C0.800269 4.06585 0.95924 4 1.125 4H4.25ZM5.5 4H10.5C10.5 3.33696 10.2366 2.70107 9.76777 2.23223C9.29893 1.76339 8.66304 1.5 8 1.5C7.33696 1.5 6.70107 1.76339 6.23223 2.23223C5.76339 2.70107 5.5 3.33696 5.5 4Z" fill="#B7863B"/>
</svg>
