<svg width="18" height="18" viewBox="0 0 18 18" fill="none" xmlns="http://www.w3.org/2000/svg">
<path d="M9 9C10.094 9 11.1432 8.52589 11.9168 7.68198C12.6904 6.83807 13.125 5.69347 13.125 4.5C13.125 3.30653 12.6904 2.16193 11.9168 1.31802C11.1432 0.474106 10.094 0 9 0C7.90598 0 6.85677 0.474106 6.08318 1.31802C5.3096 2.16193 4.875 3.30653 4.875 4.5C4.875 5.69347 5.3096 6.83807 6.08318 7.68198C6.85677 8.52589 7.90598 9 9 9ZM11.75 4.5C11.75 5.29565 11.4603 6.05871 10.9445 6.62132C10.4288 7.18393 9.72935 7.5 9 7.5C8.27065 7.5 7.57118 7.18393 7.05546 6.62132C6.53973 6.05871 6.25 5.29565 6.25 4.5C6.25 3.70435 6.53973 2.94129 7.05546 2.37868C7.57118 1.81607 8.27065 1.5 9 1.5C9.72935 1.5 10.4288 1.81607 10.9445 2.37868C11.4603 2.94129 11.75 3.70435 11.75 4.5ZM17.25 16.5C17.25 18 15.875 18 15.875 18H2.125C2.125 18 0.75 18 0.75 16.5C0.75 15 2.125 10.5 9 10.5C15.875 10.5 17.25 15 17.25 16.5ZM15.875 16.494C15.8736 16.125 15.6632 15.015 14.731 13.998C13.8345 13.02 12.1474 12 9 12C5.85125 12 4.1655 13.02 3.269 13.998C2.33675 15.015 2.12775 16.125 2.125 16.494H15.875Z" fill="#B7863B"/>
</svg>
